<svg width="21" height="20" viewBox="0 0 21 20" fill="none" xmlns="http://www.w3.org/2000/svg">
<path d="M18.3431 2.76033L11.5991 17.7603C11.5427 17.886 11.447 17.989 11.327 18.0533C11.207 18.1177 11.0695 18.1396 10.936 18.1158C10.8024 18.092 10.6804 18.0237 10.589 17.9217C10.4975 17.8197 10.4419 17.6896 10.4306 17.5519L9.86047 10.579L3.02035 9.99771C2.88525 9.98627 2.75769 9.92951 2.6576 9.8363C2.55752 9.7431 2.49055 9.61871 2.46719 9.48258C2.44382 9.34646 2.46537 9.20628 2.52846 9.08397C2.59155 8.96166 2.69262 8.86411 2.81588 8.80658L17.5302 1.93158C17.6439 1.87844 17.7709 1.86205 17.894 1.88461C18.0172 1.90718 18.1306 1.96762 18.2191 2.05781C18.3076 2.14801 18.3669 2.26365 18.389 2.38919C18.4112 2.51474 18.3951 2.64418 18.3429 2.76014L18.3431 2.76033Z" fill="#080809"/>
</svg>
